<svg width="24" height="24" viewBox="0 0 24 24" fill="none" xmlns="http://www.w3.org/2000/svg">
	<path d="M11.55 18.21C11.4149 18.2097 11.2854 18.1557 11.19 18.06L5.49003 12.36C5.39778 12.2649 5.34619 12.1375 5.34619 12.005C5.34619 11.8725 5.39778 11.7452 5.49003 11.65L13.89 3.15001C13.9369 3.10216 13.993 3.06423 14.0548 3.03846C14.1166 3.01269 14.183 2.99962 14.25 3.00001H20C20.1326 3.00001 20.2598 3.05269 20.3536 3.14646C20.4473 3.24022 20.5 3.3674 20.5 3.50001L20.57 9.17001C20.5697 9.30514 20.5157 9.43462 20.42 9.53001L11.9 18.06C11.8547 18.1071 11.8003 18.1446 11.7402 18.1704C11.6801 18.1962 11.6154 18.2096 11.55 18.21ZM6.55003 12L11.55 17L19.55 9.00001L19.5 4.00001H14.45L6.55003 12Z" fill="var(--icon-color)"/>
	<path d="M14.35 21C14.2168 20.9993 14.0886 20.9495 13.99 20.86L2.69999 9.57C2.60774 9.47485 2.55615 9.34752 2.55615 9.215C2.55615 9.08247 2.60774 8.95515 2.69999 8.86C2.74647 8.81313 2.80177 8.77593 2.8627 8.75055C2.92363 8.72517 2.98898 8.7121 3.05499 8.7121C3.121 8.7121 3.18635 8.72517 3.24728 8.75055C3.30821 8.77593 3.36351 8.81313 3.40999 8.86L14.7 20.15C14.7469 20.1965 14.7841 20.2518 14.8094 20.3127C14.8348 20.3736 14.8479 20.439 14.8479 20.505C14.8479 20.571 14.8348 20.6364 14.8094 20.6973C14.7841 20.7582 14.7469 20.8135 14.7 20.86C14.6039 20.9472 14.4797 20.9969 14.35 21V21Z" fill="var(--icon-color)"/>
	<path d="M6.50015 20.94C6.43475 20.9396 6.3701 20.9262 6.30998 20.9004C6.24987 20.8746 6.19553 20.8371 6.15015 20.79L2.73015 17.37C2.68155 17.3216 2.64321 17.2639 2.61744 17.2003C2.59167 17.1367 2.57898 17.0686 2.58015 17C2.58015 16.73 2.58015 16.69 6.58015 12.76C6.67563 12.6672 6.80407 12.6161 6.93722 12.618C7.07037 12.6198 7.19733 12.6745 7.29015 12.77C7.38298 12.8655 7.43407 12.9939 7.4322 13.1271C7.43032 13.2602 7.37563 13.3872 7.28015 13.48C6.19015 14.59 4.45015 16.3 3.77015 17L6.50015 19.73L10.0002 16.19C10.0936 16.0984 10.2193 16.0471 10.3502 16.0471C10.481 16.0471 10.6067 16.0984 10.7002 16.19C10.747 16.2365 10.7842 16.2918 10.8096 16.3527C10.835 16.4137 10.8481 16.479 10.8481 16.545C10.8481 16.611 10.835 16.6764 10.8096 16.7373C10.7842 16.7982 10.747 16.8535 10.7002 16.9L6.86015 20.79C6.76476 20.8857 6.63529 20.9397 6.50015 20.94V20.94Z" fill="var(--icon-color)"/>
</svg>
