<svg width="30" height="30" viewBox="0 0 30 30" fill="none" xmlns="http://www.w3.org/2000/svg">
	<path d="M13.7499 27.9375C11.3263 27.9407 8.97653 27.1034 7.10108 25.5683C5.22564 24.0331 3.94054 21.8952 3.4648 19.5187C2.98905 17.1422 3.35209 14.6743 4.49205 12.5355C5.63202 10.3967 7.47836 8.71943 9.71644 7.78942C11.9545 6.8594 14.4458 6.73424 16.7659 7.43527C19.0859 8.1363 21.091 9.62013 22.4396 11.6339C23.7882 13.6477 24.3967 16.0668 24.1616 18.479C23.9264 20.8911 22.862 23.1471 21.1499 24.8625C20.1811 25.839 19.0282 26.6135 17.758 27.1413C16.4877 27.6692 15.1254 27.9398 13.7499 27.9375ZM13.7499 8.25C11.6152 8.248 9.54579 8.98643 7.89456 10.3394C6.24333 11.6924 5.11243 13.5762 4.69465 15.6696C4.27688 17.7631 4.59807 19.9366 5.60349 21.8198C6.60891 23.7029 8.23631 25.1791 10.2083 25.9967C12.1803 26.8142 14.3748 26.9226 16.4177 26.3032C18.4606 25.6839 20.2255 24.3752 21.4115 22.6002C22.5975 20.8253 23.1313 18.6939 22.9217 16.5695C22.7122 14.445 21.7723 12.459 20.2624 10.95C19.4077 10.0939 18.3925 9.41473 17.275 8.95143C16.1575 8.48813 14.9596 8.24977 13.7499 8.25Z" fill="var(--icon-color)"/>
	<path d="M22.9625 14.6625C22.7976 14.6601 22.6404 14.5928 22.525 14.475C22.4097 14.3561 22.3452 14.1969 22.3452 14.0312C22.3452 13.8656 22.4097 13.7064 22.525 13.5875L25.2125 10.9L20.3875 6.075L17.7375 8.75C17.6794 8.80858 17.6102 8.85507 17.5341 8.88681C17.4579 8.91854 17.3762 8.93487 17.2937 8.93487C17.2112 8.93487 17.1295 8.91854 17.0534 8.88681C16.9772 8.85507 16.9081 8.80858 16.85 8.75C16.7347 8.63106 16.6702 8.47191 16.6702 8.30625C16.6702 8.14059 16.7347 7.98144 16.85 7.8625L20 4.7375C20.1217 4.6277 20.2798 4.56693 20.4437 4.56693C20.6076 4.56693 20.7657 4.6277 20.8875 4.7375L26.6 10.4625C26.6598 10.5186 26.7074 10.5864 26.74 10.6616C26.7726 10.7369 26.7894 10.818 26.7894 10.9C26.7894 10.982 26.7726 11.0631 26.74 11.1384C26.7074 11.2136 26.6598 11.2814 26.6 11.3375L23.475 14.475C23.4087 14.5422 23.3284 14.5939 23.2398 14.6264C23.1512 14.6588 23.0564 14.6711 22.9625 14.6625Z" fill="var(--icon-color)"/>
	<path d="M23.15 8.575C23.0679 8.59059 22.9835 8.58987 22.9017 8.57287C22.8199 8.55587 22.7423 8.52292 22.6732 8.47591C22.6042 8.4289 22.545 8.36875 22.4992 8.29889C22.4534 8.22903 22.4218 8.15083 22.4062 8.06875C22.3906 7.98667 22.3913 7.90233 22.4083 7.82053C22.4253 7.73874 22.4583 7.66109 22.5053 7.59203C22.5523 7.52296 22.6125 7.46384 22.6823 7.41802C22.7522 7.3722 22.8304 7.34059 22.9125 7.325C23.2068 7.20499 23.4713 7.02192 23.6872 6.78868C23.9032 6.55544 24.0654 6.27769 24.1625 5.975C24.3125 5.2 23.8125 4.2125 22.7 3.1C22.5846 2.98106 22.5202 2.82191 22.5202 2.65625C22.5202 2.49059 22.5846 2.33144 22.7 2.2125C22.7581 2.15392 22.8272 2.10742 22.9033 2.07569C22.9795 2.04396 23.0612 2.02763 23.1437 2.02763C23.2262 2.02763 23.3079 2.04396 23.3841 2.07569C23.4602 2.10742 23.5294 2.15392 23.5875 2.2125C25 3.75 25.6375 5 25.3875 6.25C25.2436 6.75264 24.9879 7.21619 24.6393 7.60586C24.2908 7.99554 23.8585 8.30123 23.375 8.5C23.3073 8.54314 23.23 8.5689 23.15 8.575Z" fill="var(--icon-color)"/>
</svg>
