<svg width="24" height="24" viewBox="0 0 24 24" fill="none" xmlns="http://www.w3.org/2000/svg">
	<path d="M6.77008 11.46C6.68168 11.4617 6.59473 11.4374 6.52008 11.39L3.64008 9.7C3.58199 9.66611 3.53134 9.62084 3.49116 9.56691C3.45098 9.51299 3.42208 9.45151 3.40621 9.38616C3.39034 9.3208 3.38782 9.25292 3.39879 9.18657C3.40976 9.12022 3.43401 9.05676 3.47008 9C3.50219 8.94279 3.54545 8.89262 3.59732 8.85244C3.64918 8.81227 3.70858 8.78292 3.772 8.76613C3.83541 8.74934 3.90156 8.74546 3.9665 8.75472C4.03145 8.76397 4.09387 8.78617 4.15008 8.82L7.00008 10.53C7.09467 10.5861 7.16811 10.6718 7.20905 10.7739C7.24998 10.876 7.25612 10.9887 7.22651 11.0946C7.1969 11.2006 7.13319 11.2938 7.04525 11.3598C6.95731 11.4259 6.85005 11.4611 6.74008 11.46H6.77008Z" fill="var(--icon-color)"/>
	<path d="M17.23 11.46C17.12 11.4611 17.0128 11.4259 16.9248 11.3598C16.8369 11.2938 16.7732 11.2006 16.7436 11.0946C16.714 10.9887 16.7201 10.876 16.761 10.7739C16.802 10.6718 16.8754 10.5861 16.97 10.53L19.85 8.83999C19.9062 8.80616 19.9686 8.78396 20.0336 8.77471C20.0985 8.76545 20.1647 8.76933 20.2281 8.78612C20.2915 8.80291 20.3509 8.83226 20.4028 8.87243C20.4546 8.9126 20.4979 8.96278 20.53 9.01999C20.5965 9.13299 20.6159 9.26758 20.5841 9.39477C20.5523 9.52195 20.4718 9.63156 20.36 9.69999L17.48 11.39C17.4053 11.4374 17.3184 11.4617 17.23 11.46Z" fill="var(--icon-color)"/>
	<path d="M20.3902 20.64C20.3019 20.6406 20.2153 20.6163 20.1402 20.57L17.2702 18.88C17.2064 18.8512 17.1494 18.8093 17.1029 18.7571C17.0563 18.7049 17.0212 18.6435 16.9999 18.5768C16.9786 18.5102 16.9714 18.4398 16.979 18.3703C16.9866 18.3007 17.0087 18.2335 17.0438 18.1731C17.079 18.1126 17.1264 18.0602 17.1831 18.0192C17.2398 17.9782 17.3045 17.9495 17.373 17.9351C17.4414 17.9207 17.5122 17.9208 17.5806 17.9354C17.649 17.95 17.7136 17.9789 17.7702 18.02L20.6502 19.71C20.7644 19.7787 20.8471 19.8894 20.8808 20.0183C20.9144 20.1473 20.8963 20.2843 20.8302 20.4C20.783 20.4738 20.7179 20.5346 20.641 20.5765C20.5641 20.6185 20.4778 20.6403 20.3902 20.64Z" fill="var(--icon-color)"/>
	<path d="M4.18995 20.64C4.07998 20.6411 3.97272 20.6059 3.88478 20.5398C3.79684 20.4738 3.73313 20.3806 3.70352 20.2746C3.67391 20.1687 3.68005 20.056 3.72098 19.9539C3.76192 19.8518 3.83536 19.7661 3.92995 19.71L6.80995 18C6.86616 17.9662 6.92858 17.944 6.99353 17.9347C7.05848 17.9255 7.12462 17.9293 7.18804 17.9461C7.25145 17.9629 7.31085 17.9923 7.36272 18.0324C7.41458 18.0726 7.45785 18.1228 7.48995 18.18C7.55642 18.293 7.57585 18.4276 7.54406 18.5548C7.51226 18.682 7.43178 18.7916 7.31995 18.86L4.43995 20.57C4.36484 20.6163 4.2782 20.6406 4.18995 20.64Z" fill="var(--icon-color)"/>
	<path d="M12 21.19C10.6725 21.19 9.37479 20.7962 8.27112 20.0585C7.16745 19.3207 6.30742 18.2722 5.79985 17.0455C5.29228 15.8188 5.15999 14.4691 5.41971 13.1673C5.67942 11.8654 6.31948 10.6698 7.2589 9.73177C8.19831 8.79376 9.39485 8.15548 10.6971 7.89771C11.9994 7.63993 13.3489 7.77424 14.5748 8.28364C15.8007 8.79303 16.848 9.65463 17.5841 10.7594C18.3202 11.8642 18.712 13.1625 18.71 14.49C18.7047 16.267 17.9958 17.9697 16.7383 19.2253C15.4808 20.4809 13.7771 21.1874 12 21.19ZM12 8.77999C10.8707 8.77999 9.76673 9.11488 8.82773 9.7423C7.88872 10.3697 7.15686 11.2615 6.72468 12.3049C6.29251 13.3482 6.17943 14.4963 6.39975 15.604C6.62007 16.7116 7.1639 17.729 7.96246 18.5276C8.76101 19.3261 9.77844 19.87 10.8861 20.0903C11.9937 20.3106 13.1418 20.1975 14.1852 19.7653C15.2285 19.3332 16.1203 18.6013 16.7477 17.6623C17.3752 16.7233 17.71 15.6193 17.71 14.49C17.71 12.9756 17.1084 11.5232 16.0376 10.4524C14.9668 9.38158 13.5144 8.77999 12 8.77999Z" fill="var(--icon-color)"/>
	<path d="M5.79008 15H2.58008C2.44827 14.9974 2.32258 14.9439 2.22936 14.8507C2.13614 14.7575 2.08264 14.6318 2.08008 14.5C2.08008 14.3674 2.13276 14.2402 2.22652 14.1464C2.32029 14.0527 2.44747 14 2.58008 14H5.79008C5.92269 14 6.04986 14.0527 6.14363 14.1464C6.2374 14.2402 6.29008 14.3674 6.29008 14.5C6.29008 14.6326 6.2374 14.7598 6.14363 14.8536C6.04986 14.9473 5.92269 15 5.79008 15Z" fill="var(--icon-color)"/>
	<path d="M21.42 15H18.21C18.0774 15 17.9502 14.9473 17.8564 14.8536C17.7626 14.7598 17.71 14.6326 17.71 14.5C17.71 14.3674 17.7626 14.2402 17.8564 14.1464C17.9502 14.0527 18.0774 14 18.21 14H21.42C21.5526 14 21.6797 14.0527 21.7735 14.1464C21.8673 14.2402 21.92 14.3674 21.92 14.5C21.9174 14.6318 21.8639 14.7575 21.7707 14.8507C21.6775 14.9439 21.5518 14.9974 21.42 15Z" fill="var(--icon-color)"/>
	<path d="M15.9301 10.19H15.8201C15.756 10.177 15.6951 10.1513 15.6411 10.1144C15.5871 10.0775 15.5411 10.0301 15.5057 9.97513C15.4702 9.92014 15.4462 9.85862 15.4349 9.7942C15.4237 9.72977 15.4254 9.66374 15.4401 9.6C15.4809 9.40263 15.501 9.20154 15.5001 9V7.31C15.5001 6.38174 15.1313 5.4915 14.4749 4.83512C13.8186 4.17875 12.9283 3.81 12.0001 3.81C11.0718 3.81 10.1816 4.17875 9.52519 4.83512C8.86882 5.4915 8.50007 6.38174 8.50007 7.31V9C8.49775 9.20822 8.51787 9.41609 8.56007 9.62C8.57473 9.68374 8.57647 9.74977 8.56521 9.8142C8.55394 9.87862 8.5299 9.94014 8.49448 9.99513C8.45907 10.0501 8.413 10.0975 8.359 10.1344C8.305 10.1713 8.24416 10.197 8.18007 10.21C8.11571 10.2247 8.04906 10.2266 7.98398 10.2154C7.91889 10.2043 7.85666 10.1804 7.80088 10.145C7.74509 10.1097 7.69686 10.0637 7.65896 10.0096C7.62106 9.95553 7.59425 9.89449 7.58007 9.83C7.52526 9.55677 7.49846 9.27867 7.50007 9V7.31C7.50007 6.11652 7.97417 4.97193 8.81809 4.12802C9.662 3.2841 10.8066 2.81 12.0001 2.81C13.1935 2.81 14.3381 3.2841 15.182 4.12802C16.026 4.97193 16.5001 6.11652 16.5001 7.31V9C16.5017 9.27867 16.4749 9.55677 16.4201 9.83C16.3893 9.93552 16.3247 10.028 16.2361 10.093C16.1475 10.1581 16.04 10.1922 15.9301 10.19Z" fill="var(--icon-color)"/>
</svg>
