<svg width="30" height="30" viewBox="0 0 30 30" fill="none" xmlns="http://www.w3.org/2000/svg">
	<path d="M26.4252 28.125H3.5752C3.40944 28.125 3.25046 28.0592 3.13325 27.942C3.01604 27.8248 2.9502 27.6658 2.9502 27.5V19.525C2.9502 19.3593 3.01604 19.2003 3.13325 19.0831C3.25046 18.9659 3.40944 18.9 3.5752 18.9H26.4252C26.591 18.9 26.7499 18.9659 26.8671 19.0831C26.9843 19.2003 27.0502 19.3593 27.0502 19.525V27.5C27.0502 27.6658 26.9843 27.8248 26.8671 27.942C26.7499 28.0592 26.591 28.125 26.4252 28.125ZM4.2002 26.875H25.8002V20.15H4.2002V26.875Z" fill="var(--icon-color)"/>
	<path d="M3.57511 20.15C3.41123 20.1611 3.24957 20.1072 3.12511 20C3.0098 19.8811 2.94531 19.7219 2.94531 19.5563C2.94531 19.3906 3.0098 19.2315 3.12511 19.1125L7.71261 14.5375C7.76842 14.4775 7.83617 14.4298 7.91152 14.3975C7.98687 14.3652 8.06814 14.349 8.15011 14.35L21.9001 14.4375C22.0673 14.4462 22.2262 14.5125 22.3501 14.625L26.8376 19.1125C26.9553 19.2302 27.0214 19.3898 27.0214 19.5563C27.0214 19.7227 26.9553 19.8823 26.8376 20C26.7199 20.1177 26.5603 20.1838 26.3939 20.1838C26.2274 20.1838 26.0678 20.1177 25.9501 20L21.6376 15.6875L8.41261 15.575L4.01261 20C3.95363 20.0533 3.88444 20.0941 3.80924 20.1199C3.73404 20.1457 3.65439 20.1559 3.57511 20.15Z" fill="var(--icon-color)"/>
	<path d="M22.3125 15.625C22.1467 15.625 21.9878 15.5591 21.8706 15.4419C21.7533 15.3247 21.6875 15.1657 21.6875 15V3.22498H8.75V15C8.75 15.1657 8.68415 15.3247 8.56694 15.4419C8.44973 15.5591 8.29076 15.625 8.125 15.625C7.95924 15.625 7.80027 15.5591 7.68306 15.4419C7.56585 15.3247 7.5 15.1657 7.5 15V2.59998C7.5032 2.43522 7.57008 2.2781 7.6866 2.16157C7.80312 2.04505 7.96024 1.97818 8.125 1.97498H22.3125C22.4783 1.97498 22.6372 2.04082 22.7544 2.15803C22.8717 2.27524 22.9375 2.43422 22.9375 2.59998V15C22.9375 15.1657 22.8717 15.3247 22.7544 15.4419C22.6372 15.5591 22.4783 15.625 22.3125 15.625Z" fill="var(--icon-color)"/>
	<path d="M15.2373 7.02502C15.0715 7.02502 14.9126 6.95918 14.7954 6.84197C14.6782 6.72476 14.6123 6.56578 14.6123 6.40002V2.65002C14.6123 2.48426 14.6782 2.32529 14.7954 2.20808C14.9126 2.09087 15.0715 2.02502 15.2373 2.02502C15.4021 2.02822 15.5592 2.0951 15.6757 2.21162C15.7922 2.32815 15.8591 2.48527 15.8623 2.65002V6.40002C15.8623 6.56578 15.7965 6.72476 15.6792 6.84197C15.562 6.95918 15.4031 7.02502 15.2373 7.02502Z" fill="var(--icon-color)"/>
	<path d="M17.9875 9.78752C17.8227 9.78432 17.6656 9.71744 17.5491 9.60092C17.4326 9.48439 17.3657 9.32728 17.3625 9.16252C17.385 8.86891 17.3466 8.57383 17.2497 8.29577C17.1528 8.0177 16.9995 7.76266 16.7994 7.54663C16.5993 7.33061 16.3567 7.15826 16.0868 7.04039C15.817 6.92252 15.5257 6.86168 15.2313 6.86168C14.9368 6.86168 14.6455 6.92252 14.3757 7.04039C14.1058 7.15826 13.8632 7.33061 13.6631 7.54663C13.463 7.76266 13.3097 8.0177 13.2128 8.29577C13.1159 8.57383 13.0775 8.86891 13.1 9.16252C13.1 9.32828 13.0342 9.48725 12.9169 9.60446C12.7997 9.72167 12.6408 9.78752 12.475 9.78752C12.3102 9.78432 12.1531 9.71744 12.0366 9.60092C11.9201 9.48439 11.8532 9.32728 11.85 9.16252C11.8219 8.70119 11.8886 8.23901 12.0458 7.8044C12.203 7.36979 12.4475 6.97195 12.7643 6.63537C13.081 6.29879 13.4633 6.03058 13.8875 5.84724C14.3118 5.66391 14.7691 5.56934 15.2313 5.56934C15.6934 5.56934 16.1507 5.66391 16.575 5.84724C16.9992 6.03058 17.3815 6.29879 17.6982 6.63537C18.015 6.97195 18.2595 7.36979 18.4167 7.8044C18.5739 8.23901 18.6406 8.70119 18.6125 9.16252C18.6125 9.32828 18.5467 9.48725 18.4294 9.60446C18.3122 9.72167 18.1533 9.78752 17.9875 9.78752Z" fill="var(--icon-color)"/>
</svg>
