<svg width="30" height="30" viewBox="0 0 30 30" fill="none" xmlns="http://www.w3.org/2000/svg">
	<path d="M20.5125 22.3625C20.3774 22.3601 20.2467 22.3148 20.1391 22.2333C20.0314 22.1518 19.9524 22.0382 19.9135 21.9089C19.8746 21.7796 19.8777 21.6413 19.9225 21.5139C19.9672 21.3865 20.0512 21.2766 20.1625 21.2C21.8984 20.0845 23.2264 18.4368 23.9476 16.5035C24.6688 14.5702 24.7445 12.4553 24.1632 10.4754C23.582 8.49555 22.3751 6.75718 20.7232 5.52057C19.0714 4.28396 17.0634 3.61563 15 3.61563C12.9365 3.61563 10.9286 4.28396 9.2767 5.52057C7.62485 6.75718 6.41796 8.49555 5.83669 10.4754C5.25543 12.4553 5.33106 14.5702 6.05228 16.5035C6.77349 18.4368 8.10148 20.0845 9.83745 21.2C9.90702 21.2454 9.96684 21.3043 10.0134 21.3731C10.06 21.4419 10.0923 21.5193 10.1086 21.6008C10.1249 21.6822 10.1248 21.7661 10.1083 21.8476C10.0918 21.929 10.0592 22.0063 10.0125 22.075C9.92065 22.2115 9.77964 22.3072 9.6189 22.3422C9.45816 22.3771 9.29014 22.3486 9.14995 22.2625C7.18941 20.9992 5.69051 19.1351 4.87745 16.949C4.06438 14.763 3.98083 12.3725 4.63929 10.1351C5.29775 7.8976 6.66283 5.93342 8.53039 4.53627C10.3979 3.13912 12.6676 2.38409 15 2.38409C17.3323 2.38409 19.602 3.13912 21.4695 4.53627C23.3371 5.93342 24.7022 7.8976 25.3606 10.1351C26.0191 12.3725 25.9355 14.763 25.1225 16.949C24.3094 19.1351 22.8105 20.9992 20.85 22.2625C20.7478 22.324 20.6316 22.3585 20.5125 22.3625Z" fill="var(--icon-color)"/>
	<path d="M20.5125 27.65H9.48755C9.32179 27.65 9.16282 27.5841 9.04561 27.4669C8.9284 27.3497 8.86255 27.1908 8.86255 27.025V21.7375C8.86255 21.5717 8.9284 21.4128 9.04561 21.2956C9.16282 21.1783 9.32179 21.1125 9.48755 21.1125C9.65331 21.1125 9.81228 21.1783 9.92949 21.2956C10.0467 21.4128 10.1125 21.5717 10.1125 21.7375V26.4H19.8875V21.7375C19.8875 21.5717 19.9534 21.4128 20.0706 21.2956C20.1878 21.1783 20.3468 21.1125 20.5125 21.1125C20.6783 21.1125 20.8373 21.1783 20.9545 21.2956C21.0717 21.4128 21.1375 21.5717 21.1375 21.7375V27.025C21.1375 27.1908 21.0717 27.3497 20.9545 27.4669C20.8373 27.5841 20.6783 27.65 20.5125 27.65Z" fill="var(--icon-color)"/>
	<path d="M11.45 17.875C11.2842 17.875 11.1252 17.8092 11.008 17.6919C10.8908 17.5747 10.825 17.4158 10.825 17.25V12.75C10.825 12.5842 10.8908 12.4253 11.008 12.3081C11.1252 12.1908 11.2842 12.125 11.45 12.125C11.6147 12.1282 11.7718 12.1951 11.8884 12.3116C12.0049 12.4281 12.0718 12.5852 12.075 12.75V17.25C12.0718 17.4148 12.0049 17.5719 11.8884 17.6884C11.7718 17.8049 11.6147 17.8718 11.45 17.875Z" fill="var(--icon-color)"/>
	<path d="M18.2 17.875C18.0352 17.8718 17.8781 17.8049 17.7615 17.6884C17.645 17.5719 17.5782 17.4148 17.575 17.25V12.75C17.5782 12.5852 17.645 12.4281 17.7615 12.3116C17.8781 12.1951 18.0352 12.1282 18.2 12.125C18.3657 12.125 18.5247 12.1908 18.6419 12.3081C18.7591 12.4253 18.825 12.5842 18.825 12.75V17.25C18.825 17.3321 18.8088 17.4133 18.7774 17.4892C18.746 17.565 18.6999 17.6339 18.6419 17.6919C18.5839 17.75 18.515 17.796 18.4391 17.8274C18.3633 17.8588 18.282 17.875 18.2 17.875Z" fill="var(--icon-color)"/>
	<path d="M13.2249 27.675C13.0601 27.6718 12.903 27.6049 12.7865 27.4884C12.6699 27.3719 12.6031 27.2148 12.5999 27.05V24.3875C12.5999 24.2217 12.6657 24.0628 12.7829 23.9456C12.9001 23.8283 13.0591 23.7625 13.2249 23.7625C13.3906 23.7625 13.5496 23.8283 13.6668 23.9456C13.784 24.0628 13.8499 24.2217 13.8499 24.3875V27.05C13.8499 27.2158 13.784 27.3747 13.6668 27.4919C13.5496 27.6091 13.3906 27.675 13.2249 27.675Z" fill="var(--icon-color)"/>
	<path d="M16.7749 27.675C16.6091 27.675 16.4502 27.6091 16.333 27.4919C16.2157 27.3747 16.1499 27.2158 16.1499 27.05V24.3875C16.1499 24.2217 16.2157 24.0628 16.333 23.9456C16.4502 23.8283 16.6091 23.7625 16.7749 23.7625C16.9407 23.7625 17.0996 23.8283 17.2168 23.9456C17.3341 24.0628 17.3999 24.2217 17.3999 24.3875V27.05C17.3967 27.2148 17.3298 27.3719 17.2133 27.4884C17.0968 27.6049 16.9397 27.6718 16.7749 27.675Z" fill="var(--icon-color)"/>
</svg>
