<svg width="30" height="30" viewBox="0 0 30 30" fill="none" xmlns="http://www.w3.org/2000/svg">
	<path d="M21.6788 4.34386L16.7614 9.26127L17.4243 12.5758L20.7388 13.2387L25.6562 8.32133L25.6567 8.32113C26.2654 9.75788 26.4109 11.3487 26.0732 12.872C25.7354 14.3954 24.9311 15.7755 23.7722 16.8204C22.6132 17.8652 21.1574 18.5227 19.6073 18.7014C18.0572 18.8801 16.49 18.571 15.1238 17.8173L15.1239 17.817L8.55133 25.4262C8.02378 25.9532 7.30856 26.2491 6.56292 26.2489C5.81728 26.2487 5.10223 25.9524 4.57498 25.4251C4.04773 24.8979 3.75143 24.1828 3.75122 23.4372C3.75101 22.6915 4.0469 21.9763 4.57385 21.4488L12.183 14.8763L12.1828 14.8763C11.4291 13.5101 11.12 11.9429 11.2987 10.3928C11.4774 8.84267 12.1349 7.38685 13.1797 6.22795C14.2246 5.06904 15.6047 4.26472 17.1281 3.92694C18.6514 3.58916 20.2422 3.73472 21.679 4.34338L21.6788 4.34386Z" stroke="var(--icon-color)" stroke-linecap="round" stroke-linejoin="round"/>
</svg>
