<svg width="30" height="30" viewBox="0 0 30 30" fill="none" xmlns="http://www.w3.org/2000/svg">
	<path d="M21.6785 4.34386L16.7611 9.26127L17.424 12.5758L20.7386 13.2387L25.656 8.32133L25.6565 8.32113C26.2651 9.75788 26.4107 11.3487 26.0729 12.872C25.7351 14.3954 24.9308 15.7755 23.7719 16.8204C22.613 17.8652 21.1572 18.5227 19.6071 18.7014C18.057 18.8801 16.4898 18.571 15.1235 17.8173L15.1237 17.817L8.55108 25.4262C8.02353 25.9532 7.30832 26.2491 6.56268 26.2489C5.81703 26.2487 5.10199 25.9524 4.57474 25.4251C4.04749 24.8979 3.75119 24.1828 3.75098 23.4372C3.75076 22.6915 4.04666 21.9763 4.57361 21.4488L12.1828 14.8763L12.1826 14.8763C11.4288 13.5101 11.1198 11.9429 11.2985 10.3928C11.4771 8.84267 12.1347 7.38685 13.1795 6.22795C14.2243 5.06904 15.6045 4.26472 17.1278 3.92694C18.6512 3.58916 20.242 3.73472 21.6787 4.34338L21.6785 4.34386Z" stroke="var(--icon-color)" stroke-width="1.2" stroke-linecap="round" stroke-linejoin="round"/>
</svg>
