<svg width="30" height="30" viewBox="0 0 30 30" fill="none" xmlns="http://www.w3.org/2000/svg">
	<path d="M14.9999 26.775C14.9003 26.7795 14.8012 26.7579 14.7124 26.7125C14.3249 26.5 5.17493 21.6375 3.27493 15.15C2.18743 11.4625 2.49993 7.925 4.22493 5.6875C4.82826 4.88188 5.61723 4.23388 6.52475 3.79861C7.43227 3.36335 8.43149 3.15371 9.43743 3.1875C10.6187 3.13578 11.7871 3.45027 12.7828 4.08796C13.7785 4.72565 14.5528 5.6554 14.9999 6.75C15.453 5.6624 16.2299 4.74066 17.2251 4.10999C18.2203 3.47933 19.3855 3.17034 20.5624 3.225C21.5684 3.19121 22.5676 3.40085 23.4751 3.83611C24.3826 4.27138 25.1716 4.91937 25.7749 5.725C27.4499 7.9625 27.8124 11.5 26.7249 15.1875C24.8249 21.675 15.6749 26.5375 15.2874 26.75C15.1953 26.7826 15.0963 26.7912 14.9999 26.775ZM9.43743 4.475C8.62886 4.43669 7.82308 4.59527 7.08932 4.93711C6.35556 5.27895 5.71577 5.79383 5.22493 6.4375C3.78743 8.3625 3.49993 11.4375 4.47493 14.8C6.04993 20.175 13.4374 24.5625 14.9999 25.4375C16.5624 24.5625 23.9499 20.1625 25.5249 14.8C26.4999 11.4875 26.2124 8.3625 24.7749 6.4375C24.2841 5.79383 23.6443 5.27895 22.9105 4.93711C22.1768 4.59527 21.371 4.43669 20.5624 4.475C15.8874 4.475 15.6374 9.175 15.6249 9.375C15.6249 9.54076 15.5591 9.69973 15.4419 9.81694C15.3247 9.93415 15.1657 10 14.9999 10C14.8384 10.0001 14.6831 9.93773 14.5666 9.82587C14.4501 9.71401 14.3814 9.56139 14.3749 9.4C14.3624 9.175 14.0874 4.475 9.43743 4.475Z" fill="var(--icon-color)"/>
</svg>
