<svg width="24" height="24" viewBox="0 0 24 24" fill="none" xmlns="http://www.w3.org/2000/svg">
	<path d="M18.2702 21.54C18.0486 21.5392 17.8295 21.4946 17.6252 21.4088C17.421 21.323 17.2358 21.1977 17.0802 21.04L12.4902 16.45C12.3572 16.3181 12.1775 16.2441 11.9902 16.2441C11.8029 16.2441 11.6231 16.3181 11.4902 16.45L6.92016 21C6.64209 21.2693 6.28041 21.4357 5.89494 21.4716C5.50947 21.5075 5.12329 21.4107 4.80028 21.1973C4.47727 20.9839 4.23676 20.6667 4.11855 20.298C4.00033 19.9294 4.01149 19.5314 4.15016 19.17L10.4302 3.51998C10.5553 3.20583 10.7718 2.93645 11.0517 2.74667C11.3316 2.55689 11.662 2.45544 12.0002 2.45544C12.3383 2.45544 12.6687 2.55689 12.9486 2.74667C13.2285 2.93645 13.445 3.20583 13.5702 3.51998L19.8502 19.21C19.9506 19.4681 19.9868 19.7467 19.9557 20.0219C19.9247 20.297 19.8272 20.5606 19.6718 20.7898C19.5164 21.019 19.3076 21.207 19.0635 21.3377C18.8193 21.4683 18.5471 21.5378 18.2702 21.54ZM12.0002 3.45998C11.8622 3.45702 11.7267 3.49673 11.6121 3.5737C11.4976 3.65066 11.4096 3.76112 11.3602 3.88998L5.08016 19.58C5.01492 19.7278 5.0053 19.8942 5.05308 20.0486C5.10086 20.203 5.20282 20.3349 5.34016 20.42C5.47117 20.5138 5.63195 20.5564 5.79221 20.5398C5.95246 20.5232 6.10112 20.4486 6.21016 20.33L10.8002 15.74C11.1188 15.4224 11.5503 15.2441 12.0002 15.2441C12.45 15.2441 12.8815 15.4224 13.2002 15.74L17.7902 20.33C17.8992 20.4486 18.0479 20.5232 18.2081 20.5398C18.3684 20.5564 18.5292 20.5138 18.6602 20.42C18.7975 20.3349 18.8995 20.203 18.9472 20.0486C18.995 19.8942 18.9854 19.7278 18.9202 19.58L12.6402 3.88998C12.5908 3.76112 12.5028 3.65066 12.3882 3.5737C12.2737 3.49673 12.1381 3.45702 12.0002 3.45998Z" fill="var(--icon-color)"/>
</svg>
