<svg width="30" height="30" viewBox="0 0 30 30" fill="none" xmlns="http://www.w3.org/2000/svg">
	<path d="M15 27.2875C12.5637 27.2875 10.1822 26.5647 8.15693 25.2107C6.13161 23.8567 4.55351 21.9323 3.62234 19.681C2.69118 17.4297 2.44881 14.9528 2.92592 12.5637C3.40303 10.1747 4.57817 7.98084 6.30261 6.2599C8.02704 4.53897 10.2233 3.36829 12.6133 2.89604C15.0033 2.42378 17.4797 2.67118 19.7291 3.60692C21.9785 4.54266 23.8997 6.12467 25.2496 8.15274C26.5995 10.1808 27.3174 12.5638 27.3125 15C27.3026 18.2601 26.0014 21.3835 23.6938 23.6864C21.3862 25.9894 18.2601 27.2842 15 27.2875ZM15 3.9125C12.8131 3.9125 10.6753 4.56068 8.85659 5.77514C7.03792 6.9896 5.62 8.71586 4.78198 10.7358C3.94395 12.7558 3.72342 14.9788 4.14825 17.124C4.57308 19.2692 5.6242 21.2404 7.16882 22.7885C8.71343 24.3366 10.6822 25.3922 12.8265 25.8219C14.9708 26.2515 17.1943 26.036 19.2161 25.2026C21.238 24.3691 22.9674 22.9551 24.186 21.1392C25.4045 19.3232 26.0575 17.1869 26.0625 15C26.0641 13.5456 25.7793 12.1051 25.2242 10.7608C24.6692 9.41652 23.8548 8.1947 22.8275 7.16513C21.8003 6.13556 20.5803 5.3184 19.2372 4.76031C17.8942 4.20223 16.4544 3.91414 15 3.9125Z" fill="var(--icon-color)"/>
	<path d="M18.5125 19.1C18.3461 19.0991 18.1858 19.0368 18.0625 18.925L14.5625 15.4125C14.5055 15.3596 14.4596 15.2959 14.4274 15.225C14.3952 15.1542 14.3774 15.0777 14.375 15V7.96249C14.375 7.79673 14.4408 7.63776 14.5581 7.52055C14.6753 7.40334 14.8342 7.33749 15 7.33749C15.1658 7.33749 15.3247 7.40334 15.4419 7.52055C15.5592 7.63776 15.625 7.79673 15.625 7.96249V14.7125L18.95 18.0375C19.0653 18.1564 19.1298 18.3156 19.1298 18.4812C19.1298 18.6469 19.0653 18.8061 18.95 18.925C18.8299 19.034 18.6746 19.0961 18.5125 19.1Z" fill="var(--icon-color)"/>
</svg>
