<svg width="30" height="30" viewBox="0 0 30 30" fill="none" xmlns="http://www.w3.org/2000/svg">
	<path d="M20.625 27.5H9.37505C9.22036 27.498 9.07165 27.4399 8.95666 27.3364C8.84167 27.2329 8.76824 27.0911 8.75005 26.9375L6.87505 6.9375C6.86545 6.76028 6.92354 6.58602 7.03755 6.45C7.097 6.38699 7.16868 6.33675 7.2482 6.30237C7.32772 6.26798 7.41341 6.25016 7.50005 6.25H22.5C22.5867 6.25016 22.6724 6.26798 22.7519 6.30237C22.8314 6.33675 22.9031 6.38699 22.9625 6.45C23.0213 6.51595 23.0661 6.59319 23.094 6.67701C23.122 6.76083 23.1325 6.84946 23.125 6.9375L21.25 26.9375C21.2319 27.0911 21.1584 27.2329 21.0434 27.3364C20.9284 27.4399 20.7797 27.498 20.625 27.5ZM10 26.25H20.1125L21.8625 7.5H8.18755L10 26.25Z" fill="var(--icon-color)"/>
	<path d="M23.75 7.5H6.25C6.08424 7.5 5.92527 7.43415 5.80806 7.31694C5.69085 7.19973 5.625 7.04076 5.625 6.875C5.625 6.70924 5.69085 6.55027 5.80806 6.43306C5.92527 6.31585 6.08424 6.25 6.25 6.25H23.75C23.9158 6.25 24.0747 6.31585 24.1919 6.43306C24.3092 6.55027 24.375 6.70924 24.375 6.875C24.375 7.04076 24.3092 7.19973 24.1919 7.31694C24.0747 7.43415 23.9158 7.5 23.75 7.5Z" fill="var(--icon-color)"/>
	<path d="M18.125 3.75H11.875C11.7092 3.75 11.5503 3.68415 11.4331 3.56694C11.3158 3.44973 11.25 3.29076 11.25 3.125C11.25 2.95924 11.3158 2.80027 11.4331 2.68306C11.5503 2.56585 11.7092 2.5 11.875 2.5H18.125C18.2908 2.5 18.4497 2.56585 18.5669 2.68306C18.6842 2.80027 18.75 2.95924 18.75 3.125C18.75 3.29076 18.6842 3.44973 18.5669 3.56694C18.4497 3.68415 18.2908 3.75 18.125 3.75Z" fill="var(--icon-color)"/>
	<path d="M12.8125 21.525C12.6467 21.525 12.4878 21.4592 12.3706 21.3419C12.2533 21.2247 12.1875 21.0658 12.1875 20.9V12.85C12.1875 12.6842 12.2533 12.5253 12.3706 12.4081C12.4878 12.2909 12.6467 12.225 12.8125 12.225C12.9783 12.225 13.1372 12.2909 13.2544 12.4081C13.3717 12.5253 13.4375 12.6842 13.4375 12.85V20.9C13.4375 21.0658 13.3717 21.2247 13.2544 21.3419C13.1372 21.4592 12.9783 21.525 12.8125 21.525Z" fill="var(--icon-color)"/>
	<path d="M17.1875 21.525C17.0217 21.525 16.8628 21.4592 16.7456 21.3419C16.6283 21.2247 16.5625 21.0658 16.5625 20.9V12.85C16.5625 12.6842 16.6283 12.5253 16.7456 12.4081C16.8628 12.2909 17.0217 12.225 17.1875 12.225C17.3533 12.225 17.5122 12.2909 17.6294 12.4081C17.7467 12.5253 17.8125 12.6842 17.8125 12.85V20.9C17.8125 21.0658 17.7467 21.2247 17.6294 21.3419C17.5122 21.4592 17.3533 21.525 17.1875 21.525Z" fill="var(--icon-color)"/>
</svg>
