<svg width="44" height="32" viewBox="0 0 44 32" fill="none" xmlns="http://www.w3.org/2000/svg">
	<path d="M42.6411 19.3466C42.9785 22.6815 40.9456 25.2648 37.7975 27.1777C34.6619 29.083 30.5856 30.205 27.2846 30.6156C20.6377 31.023 14.6434 30.0263 10.1299 28.118C5.58452 26.1961 2.67691 23.4155 1.92259 20.3431C0.81509 15.8323 2.83355 11.1968 6.73972 7.63066C10.64 4.06989 16.3319 1.67516 22.2906 1.67517C27.408 1.67518 31.0654 3.164 33.5918 4.79921C35.7565 6.20034 37.094 7.70542 37.8539 8.56046C37.9855 8.70854 38.0998 8.83711 38.198 8.94228C39.8315 10.691 40.8305 12.2805 41.4766 13.9176C42.1255 15.5617 42.433 17.2901 42.6411 19.3466Z" fill="#A6F9B3" stroke="#222222" stroke-width="1.5"/>
	<path d="M22.4835 6.36453C18.732 9.08453 24.2226 11.7864 27.4369 12.7973C29.4809 13.2808 33.7035 13.6785 34.2423 11.401C34.9158 8.55408 27.173 2.96453 22.4835 6.36453Z" fill="white"/>
</svg>
