<svg width="24" height="24" viewBox="0 0 24 24" fill="none" xmlns="http://www.w3.org/2000/svg">
	<path d="M18.53 18.9999H5.40003C5.29642 18.9977 5.19595 18.964 5.11198 18.9033C5.02802 18.8425 4.96455 18.7577 4.93003 18.6599L1.73003 8.88994C1.69991 8.7962 1.69813 8.69565 1.72493 8.6009C1.75172 8.50615 1.8059 8.42142 1.88066 8.35734C1.95542 8.29326 2.04744 8.25268 2.14517 8.24069C2.2429 8.2287 2.342 8.24583 2.43003 8.28994L8.48003 11.2899L11.55 5.28994C11.5957 5.21105 11.6613 5.14555 11.7403 5.10002C11.8193 5.05449 11.9089 5.03052 12 5.03052C12.0912 5.03052 12.1808 5.05449 12.2597 5.10002C12.3387 5.14555 12.4043 5.21105 12.45 5.28994L15.52 11.3399L21.57 8.33994C21.6584 8.29605 21.7578 8.27927 21.8556 8.29173C21.9535 8.30418 22.0455 8.34531 22.12 8.40994C22.193 8.47694 22.2457 8.56305 22.2722 8.65849C22.2988 8.75394 22.298 8.85491 22.27 8.94994L19 18.6499C18.9699 18.7511 18.9078 18.8399 18.8231 18.9029C18.7384 18.966 18.6356 19 18.53 18.9999V18.9999ZM5.77003 17.9999H18.17L20.93 9.76994L15.52 12.4599C15.4015 12.5166 15.2657 12.5254 15.1409 12.4844C15.0161 12.4434 14.9119 12.3558 14.85 12.2399L12 6.60994L9.15003 12.2299C9.08818 12.3458 8.984 12.4334 8.85918 12.4744C8.73436 12.5154 8.59855 12.5066 8.48003 12.4499L3.06003 9.71994L5.77003 17.9999Z" fill="var(--icon-color)"/>
</svg>
