<svg width="24" height="24" viewBox="0 0 24 24" fill="none" xmlns="http://www.w3.org/2000/svg">
	<path d="M11.9999 22.35H11.7799C9.91067 22.2421 8.15488 21.4182 6.87735 20.0494C5.59982 18.6806 4.89878 16.8723 4.9199 15V13.25C4.91278 12.9829 4.98752 12.72 5.13409 12.4966C5.28065 12.2731 5.49204 12.0999 5.7399 12C5.98188 11.9016 6.24748 11.8766 6.50357 11.9282C6.75965 11.9798 6.99488 12.1056 7.1799 12.29L8.3199 13.43C8.39208 13.5046 8.48493 13.5559 8.58652 13.5773C8.6881 13.5987 8.79377 13.5892 8.8899 13.55C8.9839 13.5095 9.06414 13.4426 9.12093 13.3574C9.17771 13.2722 9.20862 13.1724 9.2099 13.07V5.30003C9.21485 4.88284 9.33518 4.47517 9.55757 4.12217C9.77997 3.76916 10.0957 3.48461 10.4699 3.30003C10.8393 3.11258 11.2543 3.03375 11.6668 3.07269C12.0792 3.11163 12.4721 3.26675 12.7999 3.52003C14.7034 4.84961 16.2649 6.61119 17.3565 8.66049C18.448 10.7098 19.0386 12.9885 19.0799 15.31C19.0693 17.1808 18.3187 18.9714 16.9921 20.2905C15.6655 21.6096 13.8707 22.3501 11.9999 22.35V22.35ZM6.2499 12.93C6.20683 12.9233 6.16297 12.9233 6.1199 12.93C6.06024 12.9511 6.00877 12.9905 5.97285 13.0426C5.93693 13.0947 5.9184 13.1568 5.9199 13.22V15C5.89882 16.6122 6.49863 18.1708 7.5951 19.3528C8.69156 20.5349 10.2007 21.25 11.8099 21.35C12.6233 21.3755 13.4336 21.2373 14.1927 20.9438C14.9517 20.6503 15.6442 20.2074 16.2289 19.6413C16.8136 19.0752 17.2787 18.3975 17.5967 17.6484C17.9146 16.8992 18.079 16.0939 18.0799 15.28C18.0386 13.1123 17.4843 10.9853 16.4622 9.07322C15.4401 7.16116 13.9794 5.51855 12.1999 4.28003C12.0195 4.13755 11.8016 4.05039 11.5727 4.02909C11.3437 4.0078 11.1135 4.05328 10.9099 4.16003C10.698 4.26252 10.5196 4.42321 10.3957 4.62331C10.2717 4.82341 10.2073 5.05466 10.2099 5.29003V13.09C10.21 13.3913 10.1205 13.6858 9.95288 13.9362C9.78524 14.1865 9.54699 14.3814 9.26837 14.4961C8.98975 14.6107 8.68334 14.64 8.38805 14.5802C8.09276 14.5203 7.82191 14.3741 7.6099 14.16L6.4699 13C6.44031 12.9734 6.40539 12.9534 6.36745 12.9413C6.32951 12.9292 6.28944 12.9254 6.2499 12.93V12.93Z" fill="var(--icon-color)"/>
</svg>
