<svg width="24" height="24" viewBox="0 0 24 24" fill="none" xmlns="http://www.w3.org/2000/svg">
	<path d="M11.4498 22.9399H11.3298C11.2222 22.9134 11.1265 22.8518 11.0577 22.7649C10.9889 22.678 10.951 22.5707 10.9498 22.4599V12.4599H7.25977C7.12716 12.4599 6.99998 12.4073 6.90621 12.3135C6.81244 12.2197 6.75977 12.0926 6.75977 11.9599V2.43994C6.75977 2.30733 6.81244 2.18016 6.90621 2.08639C6.99998 1.99262 7.12716 1.93994 7.25977 1.93994H13.6398C13.7724 1.93994 13.8996 1.99262 13.9933 2.08639C14.0871 2.18016 14.1398 2.30733 14.1398 2.43994V8.28994H18.9998C19.0781 8.30036 19.1529 8.32884 19.2184 8.37313C19.2838 8.41742 19.3381 8.47631 19.3769 8.54516C19.4157 8.61401 19.4379 8.69093 19.4419 8.76986C19.4459 8.84878 19.4314 8.92755 19.3998 8.99994L11.8898 22.6799C11.8458 22.7582 11.7819 22.8234 11.7047 22.869C11.6274 22.9147 11.5395 22.9391 11.4498 22.9399V22.9399ZM7.75977 11.4699H11.4498C11.5824 11.4699 11.7096 11.5226 11.8033 11.6164C11.8971 11.7102 11.9498 11.8373 11.9498 11.9699V20.4899L18.1098 9.28994H13.6398C13.5072 9.28994 13.38 9.23726 13.2862 9.1435C13.1924 9.04973 13.1398 8.92255 13.1398 8.78994V2.93994H7.75977V11.4699Z" fill="var(--icon-color)"/>
</svg>
