<svg width="96" height="96" viewBox="0 0 96 96" fill="none" xmlns="http://www.w3.org/2000/svg">
<path d="M78.1787 37.0202C77.5728 34.7937 75.4346 32.8905 73.4745 32.8905C72.0846 32.8905 69.6969 31.4182 69.6969 30.5564C69.6969 29.7304 63.9237 25.6726 60.2886 23.9489C55.2637 21.5071 53.5888 21.0761 47.958 20.6093C44.0379 20.2861 42.4699 20.2861 40.4029 20.6452C36.0195 21.4352 29.3553 24.0567 26.4686 26.1035C25.649 26.6781 24.0809 27.7913 23.0118 28.5454C21.907 29.2995 20.8023 30.1973 20.5528 30.5205C19.6619 31.5618 17.7374 31.2387 16.0625 29.7663C15.2072 29.0122 13.3897 27.4322 11.9641 26.2472C6.4047 21.543 6.61852 21.7943 6.61852 20.322C6.61852 19.1011 6.83235 18.742 8.43604 17.3415C10.2179 15.7974 17.096 11.7036 17.9513 11.7036C18.2007 11.7036 18.3789 11.56 18.3789 11.3805C18.3789 11.2009 18.9847 10.8418 19.7331 10.5904C20.4459 10.375 21.2299 10.0518 21.4081 9.90815C22.1565 9.33359 28.7138 7.43036 31.743 6.92762C40.0822 5.45532 42.2917 5.3835 49.2054 6.28124C55.6914 7.14308 61.9636 9.08222 66.7747 11.7396C71.9421 14.6124 77.5728 19.3525 81.3148 23.9848C82.277 25.1699 85.0567 29.7663 86.0545 31.7055C87.6939 34.9733 86.696 37.6306 83.7025 38.0615C78.2499 38.8516 78.6776 38.9234 78.1787 37.0202Z" fill="#B660E4"/>
<path d="M77.537 63.6655C77.537 62.9832 77.7864 61.6546 78.1072 60.685C78.7843 58.4586 79.1763 49.4452 78.6417 47.4342C77.6082 43.3046 76.7886 41.1141 75.6125 38.8877C73.9376 35.7635 72.6903 33.7166 72.1913 33.4294C72.0131 33.3216 71.835 32.6393 71.835 31.9211C71.835 30.7002 71.8706 30.6643 72.4764 31.2029C72.8684 31.562 73.7237 31.8134 74.5078 31.8134C76.5035 31.8134 78.6417 33.6807 79.2476 35.943C79.6039 37.3076 79.8178 37.5949 80.3167 37.3794C80.6374 37.2717 81.7066 37.0563 82.6331 36.9485C84.3437 36.7331 85.7336 35.6199 85.7336 34.4707C85.7336 34.1835 86.0543 33.968 86.4107 33.968C87.4086 33.968 88.442 37.0203 89.7963 44.2023C90.4734 47.5779 90.509 48.9065 90.0101 49.2297C89.7606 49.3734 89.725 50.6661 89.8675 52.8207C90.117 56.0526 89.9745 57.3454 88.8697 62.4805C88.4777 64.2042 88.4777 64.2042 86.3038 63.9887C84.807 63.8451 83.6666 63.9528 82.7044 64.3119C81.9204 64.5992 80.4236 64.8146 79.4258 64.8505C77.537 64.8505 77.537 64.8505 77.537 63.6655Z" fill="#9049D7"/>
<path d="M39.8684 62.8035C39.5477 62.0494 39.1913 60.1821 39.1201 58.6738C38.9775 56.2679 39.0844 55.6574 39.9041 53.826C41.0801 51.2405 41.686 50.5582 43.5035 49.7323C45.2853 48.9063 49.348 48.8345 50.8092 49.5886C52.5198 50.4864 53.3038 51.815 53.3038 53.8619C53.3038 56.0165 52.8761 56.5911 51.3081 56.5911C50.3815 56.5911 50.0964 56.4115 49.8113 55.5497C49.2411 53.8978 48.172 53.5028 46.889 54.4365C45.0715 55.7292 44.6795 56.9143 44.9646 60.3616C45.2141 63.3421 45.2141 63.3421 43.8242 63.7371C41.2583 64.4553 40.5099 64.2758 39.8684 62.8035Z" fill="#9049D7"/>
<path d="M22.1566 60.0747C21.5508 59.6079 21.4795 59.2488 21.6933 56.0169C22.121 49.8763 24.6512 44.2384 28.9634 39.8933C31.6362 37.2001 32.3133 36.7332 36.4829 34.6864C39.3695 33.25 41.4365 32.8909 46.3188 32.8909C50.5953 32.8909 54.5511 33.6809 57.3665 35.1173C60.1462 36.5178 63.4961 39.606 65.0285 42.1556C65.8482 43.5202 66.4897 44.7771 66.4897 44.9925C66.4897 45.1721 66.7748 45.8903 67.0955 46.5726C67.5944 47.5421 67.737 48.7631 67.737 52.4259C67.737 57.0942 67.737 57.0942 66.4897 57.4174C65.8126 57.5969 64.4227 57.6328 63.4249 57.4892C61.6073 57.2737 61.6073 57.2737 61.251 53.0004C60.859 48.7631 60.859 48.7631 59.184 46.5366C57.2239 43.9511 53.874 41.617 50.5597 40.5038C47.3523 39.4265 43.7886 39.9651 39.5834 42.1197C37.9084 42.9816 33.3468 47.0753 33.3468 47.7217C33.3468 47.9012 32.9548 48.5476 32.4915 49.1581C31.2442 50.8099 30.1751 53.8623 29.783 56.9505C29.5692 58.3869 29.2841 59.7515 29.0703 59.967C28.4645 60.5774 22.9406 60.6852 22.1566 60.0747Z" fill="#9049D7"/>
<path d="M51.8779 90.7059C51.8779 90.5264 51.1296 90.3468 50.203 90.3468C48.0291 90.3468 44.1446 89.7363 42.9686 89.2336C42.4696 89.0182 41.6143 88.6231 41.0085 88.3718C37.8724 87.079 36.8745 86.5404 34.665 85.104C30.3172 82.1953 24.8291 75.8033 23.3679 71.8532C23.0828 71.0632 22.7265 70.2372 22.5839 70.0577C22.477 69.8422 22.2632 69.0522 22.1206 68.2622C21.9781 67.4722 21.6573 66.6103 21.4435 66.3231C20.9089 65.6049 20.9089 52.9287 21.4435 52.2464C21.693 51.9591 21.9781 51.205 22.1206 50.5586C22.477 48.799 24.9003 44.0589 26.3258 42.2275C28.4285 39.5702 29.5689 38.3133 29.9965 38.3133C30.2103 38.2774 30.6736 37.9183 31.0656 37.5233C31.7071 36.8051 33.7028 35.3687 35.3421 34.471C35.7698 34.2555 37.1953 33.6809 38.5495 33.25C41.4718 32.2445 48.0647 31.8854 51.6285 32.4959C53.5885 32.855 57.3661 34.435 59.5044 35.8355C61.3575 37.0565 64.4223 40.1088 65.2776 41.5811C67.2021 44.8489 68.3068 47.7576 68.5207 50.1995C68.7701 52.4618 68.5919 56.6992 68.1643 58.387C67.5941 60.7929 66.1329 63.3425 63.9947 65.6767C61.8921 67.9749 60.0389 69.3395 58.3996 69.7345C57.865 69.8781 57.1879 70.1654 56.9028 70.3809C56.5821 70.6323 54.7289 70.7759 52.0918 70.7759C48.2786 70.7759 47.5658 70.6682 46.069 69.9141C43.9308 68.8727 40.1888 65.4253 39.9037 64.2762C39.7968 63.8094 39.583 63.4144 39.4404 63.4144C38.9415 63.4144 37.908 57.5969 38.3 57.2019C38.5139 56.9865 38.6921 56.4119 38.6921 55.9092C38.6921 54.7242 40.2245 51.5641 41.258 50.6304C42.826 49.194 44.8574 48.2604 46.4967 48.2245C49.5971 48.1167 51.4147 48.9067 52.9114 51.0254C54.23 52.8568 54.3726 54.7242 53.3034 56.2324C52.0561 58.0279 49.3833 57.9201 49.3833 56.0887C49.3833 54.0778 46.9956 54.006 45.8196 55.981C44.9286 57.4174 44.9286 58.0279 45.8196 59.9311C47.8153 64.2044 54.0162 64.6712 57.865 60.8648C60.0389 58.7102 60.8586 55.8374 60.3953 51.7795C60.1458 49.4813 59.4687 47.614 58.6491 46.8958C58.5065 46.7881 58.3283 46.4649 58.2214 46.1417C57.865 45.208 54.2657 42.2993 53.1253 42.012C52.5194 41.8684 51.8423 41.5811 51.5572 41.3657C50.7375 40.7193 43.7882 40.8629 41.8994 41.5811C37.908 43.0534 34.0592 46.3571 32.5268 49.6609C32.1704 50.415 31.6002 51.5282 31.3151 52.1027C30.9587 52.8209 30.7093 54.6882 30.5667 57.561C30.3885 62.2293 30.7805 64.2403 32.7406 68.4058C34.3086 71.8532 40.6521 77.4551 43.5388 77.9938C44.2159 78.1015 44.7504 78.3529 44.7504 78.5324C44.7504 78.6761 45.4988 78.9275 46.461 79.0352C47.3876 79.1429 48.4211 79.3943 48.7418 79.6097C49.5259 80.0048 56.4039 80.0407 56.6534 79.6097C56.7603 79.4661 57.6512 79.2147 58.6134 79.0711C60.0746 78.8915 63.4601 77.3833 66.8101 75.4442C68.1643 74.6901 72.0488 70.74 73.2605 68.9086C74.7929 66.6463 76.6817 62.768 77.0024 61.2598C77.1449 60.5775 77.43 59.8234 77.6082 59.572C78.2141 58.8179 78.3923 49.7327 77.8933 46.7162C77.6439 45.208 77.2875 43.9153 77.1449 43.8075C76.9668 43.6998 76.8242 43.3407 76.8242 42.9816C76.8242 42.5866 76.1471 40.9706 75.3274 39.3547C73.1892 35.1532 72.7972 34.5069 72.1913 33.8964C71.9062 33.6091 71.0153 32.6395 70.2313 31.7777C67.4872 28.7972 64.5293 26.5349 60.8586 24.6675C58.8629 23.6621 56.7959 22.8361 56.3326 22.8361C55.8693 22.8361 55.3704 22.6566 55.2635 22.477C55.121 22.2616 54.8715 22.1898 54.6933 22.3334C54.5151 22.4411 54.1587 22.3693 53.9093 22.1898C52.5194 21.0765 38.407 21.0406 37.0171 22.1898C36.8033 22.3693 36.4113 22.477 36.1262 22.4052C35.4847 22.2616 29.5332 24.6675 28.0008 25.7089C27.7157 25.9244 27.0742 26.2835 26.5753 26.4989C26.0764 26.7503 24.8647 27.6481 23.8669 28.474C22.869 29.3358 21.9068 30.0181 21.7642 30.0181C21.5861 30.0181 20.8733 30.6645 20.1249 31.4186C19.3409 32.2086 18.6638 32.6755 18.5212 32.4959C18.4143 32.3164 16.383 30.5568 13.9953 28.6176C8.64963 24.2725 4.72951 20.2865 5.01461 19.5683C5.22843 19.0297 6.36883 18.1678 11.2155 14.7923C13.9596 12.8891 21.0515 9.15444 22.2275 8.97489C22.477 8.93898 23.0828 8.61579 23.5818 8.2926C24.0807 7.96941 24.7222 7.78986 24.9716 7.89759C25.2567 8.00532 25.5775 7.9335 25.6844 7.78986C25.7556 7.61031 26.4684 7.35895 27.1811 7.21531C27.9295 7.07167 28.6779 6.85621 28.8917 6.74848C29.3907 6.38938 33.6315 5.63527 37.4447 5.20435C40.9016 4.80934 49.2051 5.0248 49.8822 5.52754C50.0961 5.70709 51.3077 5.95846 52.5551 6.1021C53.8024 6.20983 55.014 6.4612 55.2279 6.64075C55.4417 6.8203 56.3683 7.07167 57.3305 7.1794C58.2571 7.32304 59.0054 7.57441 59.0054 7.71804C59.0054 7.86168 59.7538 8.14896 60.6448 8.40033C63.1038 9.08262 69.2691 12.1709 69.8036 13.0686C69.9462 13.2841 70.2669 13.4995 70.4807 13.4995C71.6211 13.4995 78.9981 20.3583 82.0986 24.3084C83.7379 26.4271 84.0586 27.0017 86.4107 31.7059C88.5133 35.9792 88.442 35.7996 88.7628 37.2001C88.9053 37.8824 89.1548 38.6365 89.333 38.8161C89.4755 39.0315 89.7963 40.1447 90.0101 41.2579C90.1883 42.3711 90.5446 44.2385 90.7585 45.3517C91.0079 46.6803 91.0792 49.3377 90.901 52.6414C90.7941 55.5142 90.6872 58.1356 90.6872 58.4947C90.6872 58.8179 90.5446 59.1052 90.3665 59.1052C90.2239 59.1052 89.9744 59.7156 89.8675 60.4697C89.5112 62.8398 89.2617 63.5939 88.3708 65.3176C88.1213 65.8921 87.8718 66.5026 87.8718 66.7181C87.8718 67.149 85.3772 72.4637 85.0565 72.7509C84.9139 72.8587 84.3794 73.5769 83.8448 74.3669C80.1741 79.7534 78.6417 81.2257 72.7972 85.0321C71.3004 86.0017 67.8792 87.9409 67.5584 88.0127C66.917 88.1204 64.458 89.0541 64.1372 89.3054C63.6383 89.7004 59.3262 90.3468 56.9741 90.3468C55.9406 90.3468 55.0853 90.4905 55.0853 90.6341C55.0853 90.8136 54.3726 90.9932 53.4816 90.9932C52.5907 91.0291 51.8779 90.9214 51.8779 90.7059ZM82.0629 63.0553C83.1677 62.6603 84.4506 62.4448 84.9139 62.5166C85.3416 62.6243 86.1256 62.768 86.5889 62.8757C87.4085 63.0553 87.4798 62.9116 87.8718 61.0084C88.0857 59.8593 88.442 58.2074 88.6202 57.3815C88.834 56.4837 88.8697 54.2214 88.7271 52.2464C88.5489 49.8404 88.6202 48.5476 88.8697 48.2245C89.1548 47.9013 89.1904 47.3626 88.941 46.5726C88.7628 45.9262 88.442 44.2025 88.2638 42.7661C88.05 41.2938 87.658 39.6061 87.3729 38.9238C87.0878 38.2774 86.4463 36.5896 85.9118 35.1532C84.9852 32.6395 81.8847 27.1094 80.281 25.1344C77.3588 21.5075 73.4386 17.8806 69.8749 15.5105C66.0617 12.9609 65.0282 12.3863 60.6448 10.4831C57.972 9.29808 52.4125 7.75395 50.8088 7.75395C50.1317 7.75395 48.136 7.50259 46.3541 7.1794C42.8973 6.56893 40.0106 6.74848 32.8119 8.00532C29.7827 8.50806 23.2254 10.4113 22.477 10.9858C22.2988 11.1295 21.5148 11.4527 20.7664 11.6681C20.0536 11.9195 19.4478 12.2786 19.4478 12.4582C19.4478 12.6377 19.2696 12.7813 19.0202 12.7813C18.0936 12.7813 11.1443 16.9469 9.39802 18.5628C7.50923 20.2865 7.50923 20.2865 9.00601 21.6511C9.79003 22.4052 11.6075 23.9852 13.033 25.1703C14.4229 26.3553 16.3117 27.9713 17.167 28.7254C18.7707 30.1258 18.7707 30.1258 19.7329 29.2281C20.2675 28.7254 21.4791 27.7917 22.4414 27.1094C23.4036 26.4271 24.7934 25.4576 25.5418 24.9189C27.2524 23.698 29.7827 22.5489 33.7028 21.1484C39.191 19.2092 42.5409 18.886 50.2386 19.6042C54.8715 20.0711 56.5465 20.5379 61.3575 22.872C64.7787 24.488 70.7658 28.6535 70.7658 29.4076C70.7658 29.5872 71.4073 30.3772 72.1913 31.1313C74.5078 33.4296 77.5726 38.8161 78.6774 42.5866C79.9247 46.824 79.9959 47.3626 80.0672 51.8873C80.1385 56.6633 79.9247 58.8897 79.105 61.7625C78.8199 62.7321 78.6061 63.5939 78.6061 63.6657C78.6061 63.9889 80.281 63.7016 82.0629 63.0553ZM43.9308 62.1934C44.0021 62.1216 43.9308 61.1879 43.717 60.1106C43.1111 56.7351 44.0377 54.3651 46.6036 52.8927C47.8509 52.1386 47.9222 52.1386 49.2051 52.7491C50.0248 53.1441 50.6306 53.7546 50.8801 54.4369C51.1652 55.3346 51.3434 55.4424 51.7354 55.1192C52.4481 54.5087 52.3412 53.2518 51.4859 52.1386C49.8822 50.0918 47.2094 49.589 44.5723 50.81C42.7547 51.6359 42.1489 52.3182 40.9729 54.9396C39.9394 57.2378 39.9037 59.2847 40.9372 61.6907C41.4718 62.9475 41.5431 63.0194 42.6478 62.6962C43.2537 62.5166 43.8595 62.3012 43.9308 62.1934ZM28.0364 58.8538C28.2146 58.6742 28.4997 57.3097 28.7136 55.8733C29.1056 52.785 30.1747 49.7327 31.422 48.0808C31.8853 47.4703 32.2773 46.824 32.2773 46.6444C32.2773 46.4649 33.2752 45.3517 34.5225 44.1666C37.8724 40.8629 41.3649 39.2829 46.4254 38.8161C48.5637 38.6006 49.419 38.7083 51.4147 39.3547C54.9428 40.5397 58.2214 42.8021 60.2528 45.4594C61.9277 47.6858 61.9277 47.6858 62.3197 51.9232C62.6761 56.1606 62.6761 56.1606 63.7809 56.3401C64.3511 56.4119 65.2776 56.376 65.7766 56.2324C66.6675 55.981 66.6675 55.9451 66.6675 52.4259C66.6319 49.8404 66.4537 48.5476 66.026 47.6499C65.7053 46.9676 65.4202 46.2494 65.4202 46.0699C65.4202 44.8848 62.2841 40.6475 60.1458 38.8879C57.1879 36.4819 55.5842 35.656 52.0205 34.6864C47.0312 33.3937 41.5787 33.7887 37.5517 35.7637C33.3821 37.8106 32.705 38.2774 30.0321 40.9706C26.0407 44.9567 23.3323 50.6304 22.8334 56.0169C22.6195 58.387 22.6552 58.7102 23.2254 59.0693C23.9738 59.5361 27.5375 59.3565 28.0364 58.8538Z" fill="#5F27A2"/>
</svg>
