<svg width="30" height="30" viewBox="-2 -2 44 44" fill="none" xmlns="http://www.w3.org/2000/svg">
	<path d="M40 25.4578C40 18.7509 35.3467 16.9624 11.149 16.0681C7.89167 17.5585 1.37692 20.9865 1.37692 22.7751C1.37692 25.0107 -2.81112 37.0832 16.7331 38.8717C36.2773 40.6602 40 32.1648 40 25.4578Z" fill="white" stroke="#BABABA" stroke-width="2"/>
	<path d="M14.1547 12.7788L32.985 18.7273L33.635 32.2591L8.26528 27.2758V14.5909L9.17134 13.2318L14.1547 12.7788Z" fill="#FFD983"/>
	<path d="M15.5138 13.6849L32.985 18.7273L26.8395 10.0606L22.7918 8.97728L21.4622 6.76137L20.1327 5.87501L20.0441 4.98864L20.4116 4.62425L20.5758 4.10228L21.866 5.53031L23.6781 3.26515L21.4622 2.77273L20.1327 3.65909L20.0441 2.81212L19.138 1L16.4198 3.26515L14.1547 1.90606L10.9835 2.81212L9.17134 5.98334H6.00013L3.73497 9.60759L5.5471 13.2318L6.90619 28.1819L33.182 34.0713L33.635 32.7122L8.71831 27.7288L8.26528 15.497L9.62437 13.2318L15.5138 13.6849Z" fill="#E3EBED"/>
	<path d="M9.42065 19.1705C9.71611 18.4319 10.5729 16.9546 11.6366 16.9546C12.9661 16.9546 11.6366 18.7273 12.5229 19.1705C13.4093 19.6137 15.182 16.9546 15.6252 17.3978C16.0684 17.841 16.0684 19.6137 16.5116 19.6137C16.9548 19.6137 18.7275 18.2841 19.6138 18.7273C20.5002 19.1705 19.1707 20.5 20.057 20.9432C20.9434 21.3864 23.6025 19.6137 24.0457 19.6137C24.4889 19.6137 23.6025 21.3864 24.4889 21.8296C25.3752 22.2728 27.1479 19.1705 28.0343 20.0569C28.9207 20.9432 28.9207 22.2728 29.3639 22.716C29.807 23.1591 31.5798 20.9432 32.023 20.9432C32.4661 20.9432 32.9093 24.4887 32.9093 24.0455" stroke="#E2B44B"/>
	<path d="M33.389 26.7289C33.0712 27.4619 32.1617 28.9227 31.0664 28.9027C29.6972 28.8776 31.0988 27.1302 30.1942 26.6704C29.2895 26.2106 27.4152 28.8358 26.9669 28.3843C26.5186 27.9329 26.5511 26.1604 26.0947 26.1521C25.6383 26.1437 23.7883 27.4396 22.8836 26.9798C21.979 26.52 23.3725 25.2157 22.4678 24.7559C21.5631 24.2961 18.7923 26.0184 18.3359 26.01C17.8795 26.0017 18.8247 24.2459 17.92 23.7861C17.0154 23.3263 15.133 26.3946 14.2364 25.4917C13.3398 24.5888 13.3642 23.2594 12.9159 22.808C12.4676 22.3565 10.6014 24.5386 10.145 24.5303C9.68861 24.5219 9.29713 20.9687 9.28901 21.4118" stroke="#E2B44B"/>
	<path d="M32.985 18.7273C30.2668 15.103 24.1214 7.29048 24.1214 6.92806C25.0274 4.20982 22.3093 0.585585 19.5911 1.03866C17.7682 1.3425 16.7219 2.39776 16.4199 3.30382C15.8158 2.69978 14.0641 1.67291 11.8896 2.39776C9.715 3.12261 9.17137 5.11591 9.17137 6.02195C8.2653 5.71993 5.70858 7.52758 4.6213 8.97728C2.44676 11.8767 4.49005 12.3644 5.54712 13.2704C5.73704 15.2962 5.2981 18.2418 5.54712 20.9432C5.89211 24.6858 6.90621 28.01 6.90621 28.2205C6.90621 28.5829 8.41631 28.9755 9.17137 29.1265L33.635 34.1099L33.8713 32.0228M32.985 18.7273L33.8713 32.0228M32.985 18.7273C29.7134 17.7925 26.3875 17.2965 21.9054 16.0682C17.9168 14.7387 9.62086 12.3982 8.60995 13.4091C7.8851 13.7715 8.26531 14.4785 8.26531 14.6295L9.05313 20.9432L9.17137 27.1478L21.0191 30.25L33.8713 32.0228" stroke="#333333" stroke-width="1.5"/>
	<path d="M20.1328 3.65906L17.9169 6.76133C17.3129 6.61032 14.5512 4.77537 13.4851 4.9886C11.2199 5.44164 11.7222 7.92017 11.2692 8.97725C10.5141 8.82624 7.72371 8.09088 6.83734 9.42043C6.39416 10.75 7.28053 13.4091 8.16689 13.8523" stroke="#333333" stroke-width="1.5"/>
	<path d="M19.9979 1.01219C17.4609 0.649766 15.1819 8.47817 15.1819 9.83725C15.1819 11.6494 17.3978 11.61 20.0569 12.0532C22.7381 12.5 24.9812 10.0728 24.9812 9.16673C24.9812 8.26067 23.1691 1.46522 19.9979 1.01219Z" fill="#DE3C51" stroke="#333333" stroke-width="1.5"/>
</svg>
